<svg width="1000" height="364" viewBox="0 0 1000 364" fill="none" xmlns="http://www.w3.org/2000/svg">
<path d="M0 357V7H144C166 7 185.333 11.5 202 20.5C219 29.167 232.167 41.5 241.5 57.5C251.167 73.5 256 92.5 256 114.5V121.5C256 143.167 251 162.167 241 178.5C231.333 194.5 218 207 201 216C184.333 224.667 165.333 229 144 229H66V357H0ZM66 169H137.5C153.167 169 165.833 164.667 175.5 156C185.167 147.333 190 135.5 190 120.5V115.5C190 100.5 185.167 88.667 175.5 80C165.833 71.333 153.167 67 137.5 67H66V169ZM209.802 357L301.802 7H416.802L508.802 357H440.802L421.802 280H296.802L277.802 357H209.802ZM312.302 219H406.302L363.802 48.5H354.802L312.302 219ZM631.097 364C604.097 364 580.264 359.167 559.597 349.5C538.93 339.833 522.764 326 511.097 308C499.43 290 493.597 268.333 493.597 243V229H558.597V243C558.597 264 565.097 279.833 578.097 290.5C591.097 300.833 608.764 306 631.097 306C653.764 306 670.597 301.5 681.597 292.5C692.93 283.5 698.597 272 698.597 258C698.597 248.333 695.764 240.5 690.097 234.5C684.764 228.5 676.764 223.667 666.097 220C655.764 216 643.097 212.333 628.097 209L616.597 206.5C592.597 201.167 571.93 194.5 554.597 186.5C537.597 178.167 524.43 167.333 515.097 154C506.097 140.667 501.597 123.333 501.597 102C501.597 80.667 506.597 62.5 516.597 47.5C526.93 32.167 541.264 20.5 559.597 12.5C578.264 4.1666 600.097 0 625.097 0C650.097 0 672.264 4.3333 691.597 13C711.264 21.333 726.597 34 737.597 51C748.93 67.667 754.597 88.667 754.597 114V129H689.597V114C689.597 100.667 686.93 90 681.597 82C676.597 73.667 669.264 67.667 659.597 64C649.93 60 638.43 58 625.097 58C605.097 58 590.264 61.833 580.597 69.5C571.264 76.833 566.597 87 566.597 100C566.597 108.667 568.764 116 573.097 122C577.764 128 584.597 133 593.597 137C602.597 141 614.097 144.5 628.097 147.5L639.597 150C664.597 155.333 686.264 162.167 704.597 170.5C723.264 178.833 737.764 189.833 748.097 203.5C758.43 217.167 763.597 234.667 763.597 256C763.597 277.333 758.097 296.167 747.097 312.5C736.43 328.5 721.097 341.167 701.097 350.5C681.43 359.5 658.097 364 631.097 364ZM771.72 357V7H996.72V67H837.72V150.5H982.72V210.5H837.72V297H999.72V357H771.72Z" fill="#F3F4F6"/>
</svg>
