<svg width="1000" height="451" viewBox="0 0 1000 451" fill="none" xmlns="http://www.w3.org/2000/svg">
<path d="M0 444V94H144C166 94 185.333 98.5 202 107.5C219 116.167 232.167 128.5 241.5 144.5C251.167 160.5 256 179.5 256 201.5V208.5C256 230.167 251 249.167 241 265.5C231.333 281.5 218 294 201 303C184.333 311.667 165.333 316 144 316H66V444H0ZM66 256H137.5C153.167 256 165.833 251.667 175.5 243C185.167 234.333 190 222.5 190 207.5V202.5C190 187.5 185.167 175.667 175.5 167C165.833 158.333 153.167 154 137.5 154H66V256ZM209.802 444L301.802 94H416.802L508.802 444H440.802L421.802 367H296.802L277.802 444H209.802ZM312.302 306H406.302L363.802 135.5H354.802L312.302 306ZM320.302 65L355.302 0H428.302L376.302 65H320.302ZM631.097 451C604.097 451 580.264 446.167 559.597 436.5C538.93 426.833 522.764 413 511.097 395C499.43 377 493.597 355.333 493.597 330V316H558.597V330C558.597 351 565.097 366.833 578.097 377.5C591.097 387.833 608.764 393 631.097 393C653.764 393 670.597 388.5 681.597 379.5C692.93 370.5 698.597 359 698.597 345C698.597 335.333 695.764 327.5 690.097 321.5C684.764 315.5 676.764 310.667 666.097 307C655.764 303 643.097 299.333 628.097 296L616.597 293.5C592.597 288.167 571.93 281.5 554.597 273.5C537.597 265.167 524.43 254.333 515.097 241C506.097 227.667 501.597 210.333 501.597 189C501.597 167.667 506.597 149.5 516.597 134.5C526.93 119.167 541.264 107.5 559.597 99.5C578.264 91.1666 600.097 87 625.097 87C650.097 87 672.264 91.3333 691.597 100C711.264 108.333 726.597 121 737.597 138C748.93 154.667 754.597 175.667 754.597 201V216H689.597V201C689.597 187.667 686.93 177 681.597 169C676.597 160.667 669.264 154.667 659.597 151C649.93 147 638.43 145 625.097 145C605.097 145 590.264 148.833 580.597 156.5C571.264 163.833 566.597 174 566.597 187C566.597 195.667 568.764 203 573.097 209C577.764 215 584.597 220 593.597 224C602.597 228 614.097 231.5 628.097 234.5L639.597 237C664.597 242.333 686.264 249.167 704.597 257.5C723.264 265.833 737.764 276.833 748.097 290.5C758.43 304.167 763.597 321.667 763.597 343C763.597 364.333 758.097 383.167 747.097 399.5C736.43 415.5 721.097 428.167 701.097 437.5C681.43 446.5 658.097 451 631.097 451ZM771.72 444V94H996.72V154H837.72V237.5H982.72V297.5H837.72V384H999.72V444H771.72Z" fill="#F3F4F6"/>
</svg>
