<svg width="500" height="157" viewBox="0 0 500 157" fill="none" xmlns="http://www.w3.org/2000/svg">
<path d="M0 153.981V3.01923H72.0202C83.0233 3.01923 92.6925 4.96016 101.028 8.84203C109.531 12.5803 116.116 17.8997 120.784 24.8008C125.619 31.7019 128.036 39.897 128.036 49.386V52.4052C128.036 61.7506 125.535 69.9457 120.534 76.9904C115.699 83.8915 109.031 89.283 100.528 93.1648C92.1923 96.9031 82.6897 98.772 72.0202 98.772H33.0092V153.981H0ZM33.0092 72.8929H68.7693C76.605 72.8929 82.9397 71.024 87.7746 67.2857C92.6094 63.5475 95.0266 58.4437 95.0266 51.9739V49.8173C95.0266 43.3475 92.6094 38.2437 87.7746 34.5055C82.9397 30.7673 76.605 28.8984 68.7693 28.8984H33.0092V72.8929ZM104.93 153.981L150.943 3.01923H208.459L254.472 153.981H220.463L210.96 120.769H148.443L138.94 153.981H104.93ZM156.195 94.4588H203.208L181.952 20.919H177.451L156.195 94.4588ZM315.637 157C302.133 157 290.213 154.915 279.877 150.746C269.54 146.576 261.455 140.61 255.62 132.846C249.785 125.082 246.868 115.737 246.868 104.81V98.772H279.377V104.81C279.377 113.868 282.628 120.697 289.129 125.298C295.631 129.755 304.467 131.984 315.637 131.984C326.974 131.984 335.392 130.043 340.894 126.161C346.562 122.279 349.396 117.319 349.396 111.28C349.396 107.111 347.979 103.732 345.145 101.144C342.478 98.5563 338.477 96.4718 333.142 94.8901C327.974 93.1648 321.639 91.5832 314.136 90.1456L308.385 89.0673C296.381 86.7671 286.045 83.8915 277.376 80.4409C268.874 76.8468 262.288 72.1738 257.621 66.4231C253.119 60.6723 250.869 53.1958 250.869 43.9945C250.869 34.7932 253.369 26.9574 258.371 20.4876C263.539 13.8742 270.708 8.84203 279.877 5.39148C289.213 1.79713 300.133 0 312.636 0C325.14 0 336.226 1.86903 345.895 5.60714C355.732 9.20132 363.4 14.6648 368.902 21.9973C374.57 29.186 377.404 38.2437 377.404 49.1703V55.6401H344.895V49.1703C344.895 43.4196 343.561 38.8187 340.894 35.3681C338.393 31.774 334.726 29.186 329.891 27.6044C325.056 25.8791 319.304 25.0165 312.636 25.0165C302.633 25.0165 295.215 26.6697 290.38 29.9766C285.712 33.1395 283.378 37.5247 283.378 43.1319C283.378 46.8701 284.462 50.033 286.629 52.6209C288.963 55.2088 292.38 57.3654 296.882 59.0907C301.383 60.8159 307.135 62.3255 314.136 63.6195L319.888 64.6978C332.392 66.998 343.228 69.9457 352.397 73.5398C361.733 77.134 368.985 81.8785 374.153 87.7733C379.321 93.6682 381.905 101.216 381.905 110.418C381.905 119.619 379.155 127.742 373.653 134.787C368.318 141.688 360.649 147.152 350.647 151.177C340.81 155.059 329.141 157 315.637 157ZM385.968 153.981V3.01923H498.5V28.8984H418.977V64.9135H491.498V90.7926H418.977V128.102H500V153.981H385.968Z" fill="#F3F4F6"/>
</svg>
